<?xml version="1.0" encoding="UTF-8"?>
<svg id="Capa_1" xmlns="http://www.w3.org/2000/svg" xmlns:xlink="http://www.w3.org/1999/xlink" version="1.1" viewBox="0 0 1000 1900">
  <!-- Generator: Adobe Illustrator 29.5.1, SVG Export Plug-In . SVG Version: 2.1.0 Build 141)  -->
  <defs id="bmg">
    <linearGradient id="Degradado_sin_nombre_6" data-name="Degradado sin nombre 6" x1="110.8" y1="16317" x2="238.4" y2="16178.3" gradientTransform="translate(586.6 5225.2) scale(.2 -.2)" gradientUnits="userSpaceOnUse">
      <stop offset="0" stop-color="#0186f5"/>
      <stop offset=".1" stop-color="#0186f5"/>
      <stop offset=".3" stop-color="#35c2b0"/>
      <stop offset=".7" stop-color="#aad825"/>
      <stop offset="1" stop-color="#fed700"/>
    </linearGradient>
    <linearGradient id="Degradado_sin_nombre_2" data-name="Degradado sin nombre 2" x1="11.1" y1="16189.3" x2="12.2" y2="16276.3" gradientTransform="translate(586.6 5225.2) scale(.2 -.2)" gradientUnits="userSpaceOnUse">
      <stop offset="0" stop-color="#ff7f00"/>
      <stop offset="1" stop-color="#fe0201"/>
    </linearGradient>
    <linearGradient id="Degradado_sin_nombre_3" data-name="Degradado sin nombre 3" x1="136.3" y1="16368.5" x2="277.2" y2="16365.8" gradientTransform="translate(586.6 5225.2) scale(.2 -.2)" gradientUnits="userSpaceOnUse">
      <stop offset="0" stop-color="#0186f5"/>
      <stop offset=".2" stop-color="#0186f5"/>
      <stop offset="1" stop-color="#3156fd"/>
    </linearGradient>
    <linearGradient id="Degradado_sin_nombre_4" data-name="Degradado sin nombre 4" x1="297" y1="16299.6" x2="310" y2="16325.3" gradientTransform="translate(586.6 5225.2) scale(.2 -.2)" gradientUnits="userSpaceOnUse">
      <stop offset="0" stop-color="#8434d5"/>
      <stop offset=".9" stop-color="#3156fd"/>
      <stop offset="1" stop-color="#3156fd"/>
    </linearGradient>
    <linearGradient id="Degradado_sin_nombre_5" data-name="Degradado sin nombre 5" x1="270.2" y1="16292.6" x2="162" y2="16287.4" gradientTransform="translate(586.6 5225.2) scale(.2 -.2)" gradientUnits="userSpaceOnUse">
      <stop offset="0" stop-color="#8434d5"/>
      <stop offset="1" stop-color="#fe0201"/>
    </linearGradient>
  </defs>
  <rect width="1000" height="1900" fill="#e1f0ff"/>
  <g>
    <rect x="317.8" y="283.4" width="380.7" height="88.2" rx="2" ry="2" fill="#001c4c"/>
    <text transform="translate(381.6 344)" fill="#fff" font-family="Roboto-Bold, Roboto" font-size="36.7" font-weight="700"><tspan x="0" y="0">ENERGÉTICAS</tspan></text>
  </g>
  <g>
    <image width="1024" height="215" transform="translate(258.2 1193.7) scale(.2)" xlink:href="logos/endesa.png"/>
    <image width="750" height="196" transform="translate(537.7 1284.6) scale(.2)" xlink:href="logos/Logo_de_Holaluz_.png"/>
    <image width="1024" height="253" transform="translate(485.7 1177.6) scale(.3)" xlink:href="logos/Logo_Iberdrola_(2023).svg.png"/>
    <g id="Artboard">
      <g id="Logo_naturgy">
        <g id="Group-18">
          <path id="Fill-1" d="M480.9,1284.9c.2-.2.5-.3.6-.3.2,0,.4.2.4.5,0,2.4-11.6,16.1-15,19.3-2.8,2.7-4.8,4.4-5.9,4.4s-.6-.2-.6-.7c0-1.8,2.6-6.4,2.6-6.4h0c0-.1-4.8,4.2-4.8,4.2-1.1,1-2.5,1.5-3.7,1.5-2.2,0-4.2-1.8-4.2-5.9v-22.1c0-.9.6-1.4,1.4-1.4s1,.2,1.5.5c3.4,2.2,7.8,6.3,11.2,12,.5.9.7,1.8.7,2.7,0,2.9-2.3,5.8-4.6,8.4v.2l20.4-16.9Z" fill="#e57200" fill-rule="evenodd"/>
          <path id="Fill-3" d="M348.5,1305.8v2.8c0,.4-.2.6-.7.7-.8.2-1.9.3-2.9.3-2.6,0-3.5-.7-3.5-2s.1-.9.4-1.2c.4-.4,1.2-.6,2.3-.6h4.4ZM352.2,1312.6c.9-.4,1.3-1,1.3-2.1v-7.7c0-3-.5-4.8-1.8-6-1.4-1.3-3.6-1.9-7.2-1.9s-3.7.1-4.9.4c-1.3.3-1.7.8-1.7,2s0,1.6.1,2.2c0,.3.2.4.6.4,2-.3,3.7-.4,5.3-.4s3.2.1,3.8.6c.5.4.6.9.6,1.9v.6c-1.5-.2-3.3-.3-4.5-.3-2.9,0-5,.6-6.3,1.8-1,.9-1.5,2.3-1.5,3.9,0,3.6,2.6,6,8.5,6s5.9-.5,7.6-1.2h0Z" fill="#004571" fill-rule="evenodd"/>
          <path id="Fill-5" d="M397.3,1302.7c0-1.4.2-2.1.6-2.6.5-.5,1.3-.8,2.6-.8s1.3,0,2.1.1c.4,0,.6,0,.6-.4,0-.4.2-1.2.2-1.8,0-1-.3-1.6-1-1.9-.6-.3-1.8-.5-3.4-.5s-3.7.5-5,1.6c-1.1,1-1.8,2.6-1.8,5.3v11.1c0,.4.2.5.5.5h4.5v-10.6Z" fill="#004571" fill-rule="evenodd"/>
          <path id="Fill-7" d="M362.1,1295.2v-5.4h-4.1c-.7,0-1,.3-1,.9v16.3c0,2.4.5,3.8,1.6,4.8,1.1,1.1,2.8,1.8,5,1.8s3.4-.4,4.7-1c1-.4,1.4-.9,1.4-1.5s0-.5-.2-.9c-.1-.4-.4-1.2-.6-1.7,0-.2-.2-.3-.4-.3s-.2,0-.3,0c-1.3.4-2.8.7-3.8.7s-1.5-.2-1.9-.6c-.4-.4-.5-1-.5-2.1v-6.7h4.7c.7,0,1.1-.2,1.3-.6.2-.4.3-1,.3-1.8s0-1.4-.1-1.8c0-.3-.2-.4-.6-.4h-5.6Z" fill="#004571" fill-rule="evenodd"/>
          <path id="Fill-9" d="M388.7,1295.2h-4.1c-.7,0-1,.3-1,.9v9.5c0,1.2-.3,2-.8,2.5-.6.6-1.4.9-2.6.9s-2-.3-2.6-.9c-.5-.5-.8-1.3-.8-2.5v-10.4h-4.1c-.7,0-1,.3-1,.9v10.2c0,2.3.7,4,1.9,5.2,1.4,1.5,3.7,2.2,6.5,2.2s5.1-.8,6.5-2.2c1.2-1.2,1.9-2.9,1.9-5.2v-11.1Z" fill="#004571" fill-rule="evenodd"/>
          <path id="Fill-11" d="M413.5,1320.5c3.5,0,5.8-.8,7.3-2.3,1.4-1.4,2-3.5,2-6.1v-8.3c0-2.8-.8-4.9-2.2-6.3-1.6-1.6-4.1-2.5-6.7-2.5-5.7,0-9.3,3.6-9.3,9.5s2.9,9.2,8,9.2,3.9-.8,5-2.1v.8c0,1.3-.2,2.1-.8,2.8-.7.7-2.1,1.1-4.1,1.1s-3-.2-4.5-.4c-.5,0-.8.1-.9.7,0,.5-.1,1.3-.1,1.7,0,1.2.4,1.7,1.7,2,1.2.2,3,.4,4.5.4M417.7,1303.6v.5c0,1.8-.4,3.1-1.2,4-.6.7-1.6,1-2.7,1-2.8,0-4-1.9-4-4.8s1.6-4.8,4-4.8,2.2.4,2.8,1c.7.7,1.1,1.8,1.1,3.1" fill="#004571" fill-rule="evenodd"/>
          <path id="Fill-13" d="M332.8,1289.1v21.8c0,.8-.2,1.4-.6,1.8-.5.5-1.4.7-2.7.7s-1.4,0-2-.3c-.5-.1-.8-.4-1.1-.8-3.1-4.3-7.4-10.1-11-15.1v15.3c0,.6-.2.7-.8.7h-4.5v-21.8c0-.8.2-1.4.6-1.8.5-.5,1.4-.7,2.7-.7s1.4,0,2,.3c.5.2.8.4,1.1.8,2.8,3.8,7.1,9.7,11,15.1v-15.4c0-.5.2-.7.8-.7h4.5Z" fill="#004571" fill-rule="evenodd"/>
          <path id="Fill-16" d="M429,1315.7c-.5,0-.8.2-.9.7,0,.4-.1,1.2-.1,1.7,0,1.1.3,1.7,1.7,2,1.1.2,3,.4,4.5.4,3.2,0,5.4-.8,6.8-2.3,1.4-1.5,1.9-3.7,1.9-6.7v-16.2h-4.2c-.6,0-.9.3-.9.9v8.8c0,1.4-.3,2.4-.9,3.1-.6.7-1.6,1-2.7,1s-1.8-.3-2.3-.9c-.5-.6-.8-1.5-.8-2.9v-10.1h-4.1c-.7,0-.9.4-.9.9v9.7c0,2.7.6,4.5,1.8,5.8,1.2,1.2,2.9,1.9,5.3,1.9s3.7-.9,4.6-1.9v.5c0,1.2-.2,2.1-.7,2.8-.6.8-1.8,1.1-3.9,1.1s-3-.2-4.2-.4" fill="#004571" fill-rule="evenodd"/>
        </g>
      </g>
    </g>
    <image width="332" height="107" transform="translate(358.6 1360) scale(.8)" xlink:href="logos/logo-factor-25.png"/>
    <image width="280" height="232" transform="translate(304.7 1466.8) scale(.5)" xlink:href="logos/Repsol_company_logo.svg.png"/>
    <g id="layer1">
      <path id="path2847" d="M615.4,1482.4c-3.5,2.8-6.8,6.5-8.8,10.5-4,8.3-1.8,15.9,0,20.8,2.3,6.7,7,10.1,12.7,12.6,8,3.5,18.1,3.8,27.2,1.4,3.2-.8,8.2-2.6,9.3-4.2,1.2-1.7,1.4-5.1-1.2-6.6-2.5-1.4-2.7-.3-10.1,1.3-5.1,1.1-10.8,1.3-17.5-1.6-4.3-1.8-7.1-4.7-8.1-8.5-2.8-11,3.3-15.1,4.5-15.9l-8-9.9Z" fill="url(#Degradado_sin_nombre_6)"/>
      <path id="path2847-3" d="M625.4,1495.4c-4.7-.4-14-1.4-23.8-3.1-15.1-2.7-32.8-6.4-38.4-6.8-10.9-.8-12.7,13.4-4,15.8,4.9,1.4,18.5,0,21.8,6.4,1,2,3.7,9.4,6.7,18.7,1.2,3.6,10.8,3.1,9-4.7-1-4.4-3.3-16.3-3.3-16.3,0,0,27.5,2.9,29.7,3.1l2.4-13.1Z" fill="url(#Degradado_sin_nombre_2)"/>
      <path id="path2847-3-6" d="M637.8,1488.6c3.5,0,9.6,1,12.3,2.8l15.3,3c.1-8.5-4.5-13-9.7-15.6-3.9-2-9.5-3.6-17.8-3.3-7.9.3-16.3,2.1-23,7.4l8,9.9c3.8-2.4,8.5-4.4,15-4.2Z" fill="url(#Degradado_sin_nombre_3)"/>
      <path id="path2847-3-67" d="M649.9,1490.7s.8.5,1.2.8c1.7,1.5,2.2,3.3-2.8,4.2l4,12.3c9.1-2.4,13.1-7.8,13.2-14.3l-15.5-3Z" fill="url(#Degradado_sin_nombre_4)"/>
      <path id="path2847-3-0" d="M648.8,1495.7c-4.5.7-13.1,1.2-25.1-.4l-.9,13.1c19.4,1.7,26.2.5,30-.5l-4-12.3Z" fill="url(#Degradado_sin_nombre_5)"/>
      <g id="text3093">
        <path id="path3095" d="M553.6,1543.1c0,.2.2.4.4.4h3.7v9.8h2.4s0-9.8,0-9.8h3.7c.2,0,.4-.2.4-.4v-1.5c0-.2-.2-.4-.4-.4h-9.7c-.2,0-.4.2-.4.4v1.5Z" fill="#fc0103"/>
        <path id="path3097" d="M562.1,1548.9c0,2.6,2.2,4.6,4.8,4.6s4.8-2,4.8-4.6-2.2-4.6-4.8-4.6-4.8,2-4.8,4.6ZM564.8,1548.9c0-1.2.9-2.2,2.2-2.2s2.2,1,2.2,2.2-.9,2.2-2.2,2.2-2.2-1-2.2-2.2Z" fill="#fc0103"/>
        <path id="path3099" d="M573.4,1550.7c0,2,1.5,2.8,3.1,2.8s2.1-.1,2.8-.7c1.1-.8.2-2.6-1.3-1.7-.4.3-1.2.1-1.3,0-.3-.1-.8-.2-.8-1.1v-3.7h2.2c1.7,0,1.7-2.2,0-2.2h-2.2v-3h-2.4s0,3,0,3h-1.2v2.2h1.2v4.4Z" fill="#fc0103"/>
        <path id="path3101" d="M580.1,1548.8c0,2.8,2.1,4.6,4.4,4.6s2.4-.5,2.8-1.2v1.2h2.2v-8.1c0-1.6-2.2-1.5-2.2,0-.4-.7-1.7-1-2.9-1-2.3,0-4.5,1.8-4.5,4.6ZM582.8,1548.9c0-1.2.9-2.2,2.2-2.2s2.2,1,2.2,2.2-.9,2.2-2.2,2.2-2.2-1-2.2-2.2Z" fill="#fc0103"/>
        <path id="path3103" d="M594.2,1553.3v-11c0-1.4-2.5-1.4-2.5,0v11h2.5Z" fill="#fc0103"/>
        <path id="path3105" d="M596.4,1541.1c-.2,0-.4.2-.4.4v11.4c0,.2.2.4.4.4h8.1v-2.5s-5.7,0-5.7,0v-2.3h4.5c.2,0,.4-.2.4-.4v-1.6c0-.2-.2-.4-.4-.4h-4.5v-2.6h5.2c.2,0,.4-.2.4-.4v-1.6c0-.2-.2-.4-.4-.4h-7.5Z" fill="#fc0103"/>
        <path id="path3107" d="M612.6,1553c0,.2.2.4.4.4h1.6c.2,0,.4-.1.4-.4v-4.8c0-2.1-1.2-4-3.6-4s-2.7.4-3.3,1c0-1.3-2.1-1.3-2.1-.1v8.3h2.4s0-4.9,0-4.9c0-3,4.2-2.5,4.2,0v4.5Z" fill="#fc0103"/>
        <path id="path3111" d="M631.9,1544c-1.3,0-2.4.8-2.9,1.5v-.6c0-1.1-2-1.2-2,0v8.3h2.3s0-4.2,0-4.2c0-1.3.9-2.7,1.8-2.8l.9-.2c1.5,0,1.3-2.1-.2-2.1Z" fill="#fc0103"/>
        <path id="path3113" d="M638.2,1555c-1.2,0-2.4,0-3-.4-1.5-.8-2.4,1-1.4,1.5,1.2.7,1.9,1.1,4.2,1.1s4.6-1.7,4.6-4.1v-8.1c0-1.1-2.1-1.2-2.1-.1v.6c-.4-.7-1.7-1.1-2.9-1.1-2.3,0-4.4,1.8-4.4,4.5s2.1,4.5,4.5,4.5,2.1-.5,2.5-1.1v.7c0,1.2-.7,2-2.1,2ZM635.9,1548.9c0-1.2.9-2.2,2.2-2.2s2.2.9,2.2,2.2-.9,2.2-2.2,2.2-2.2-.9-2.2-2.2Z" fill="#fc0103"/>
        <path id="path3115" d="M645.8,1543.2c.8,0,1.4-.7,1.4-1.4s-.6-1.5-1.4-1.5-1.4.7-1.4,1.5.6,1.4,1.4,1.4ZM646.6,1553.3c.2,0,.3-.2.3-.4v-7.5c0-1.6-2.4-1.6-2.4,0v7.5c0,.2.2.4.4.4h1.7Z" fill="#fc0103"/>
        <path id="path3117" d="M653.1,1544.1c-2.8,0-4.8,2.1-4.8,4.8s2,4.7,4.8,4.7,3.2-.6,3.9-1.6c.5-.8-.6-1.8-1.6-1.2-.8.6-1.4.5-2.3.5s-2-.7-2.1-1.8h6c.4,0,.5-.2.5-.4v-.5c0-2.3-1.5-4.5-4.4-4.5ZM655.2,1547.8h-4c.3-1,1.1-1.6,2-1.6s1.8.5,2,1.6Z" fill="#fc0103"/>
        <path id="path3119" d="M662.4,1544c-2.4,0-4,1.3-4,3s1,2.4,2.5,2.7l1.5.3c.9.2,1.3.4,1.3.8s-.4.8-1.3.8-1.9-.2-2.4-.7c-1.3-.7-2.5.8-1.2,1.7.8.5,2,1,3.5,1,2.5,0,4.2-1.3,4.2-3.1s-1.3-2.4-2.9-2.7l-1.5-.3c-.8-.1-1.1-.4-1.1-.7s.5-.7,1.2-.7,1.4,0,2,.5c1.1.7,2.3-.7,1.3-1.6-.6-.5-1.4-.9-3.3-.9h0Z" fill="#fc0103"/>
        <path id="path3117-5" d="M621.2,1544.1c-2.8,0-4.8,2.1-4.8,4.8s2,4.7,4.8,4.7,3.2-.6,3.9-1.6c.5-.8-.6-1.8-1.6-1.2-.8.6-1.4.5-2.3.5s-2-.7-2.1-1.8h6c.4,0,.5-.2.5-.4v-.5c0-2.3-1.5-4.5-4.4-4.5ZM623.3,1547.8h-4c.3-1,1.1-1.6,2-1.6s1.8.5,2,1.6Z" fill="#fc0103"/>
      </g>
    </g>
  </g>
  <g>
    <rect x="255.5" y="1017.7" width="515.1" height="99.9" rx="2" ry="2" fill="#001c4c"/>
    <text transform="translate(322.1 1081.7)" fill="#fff" font-family="Roboto-Bold, Roboto" font-size="36.7" font-weight="700"><tspan x="0" y="0">COMERCIALIZADORAS</tspan></text>
  </g>
  <g>
    <g>
      <g>
        <g>
          <line x1="303.5" y1="473.4" x2="355" y2="473.4" fill="none" stroke="#001c4c" stroke-miterlimit="10" stroke-width="4"/>
          <g>
            <g>
              <path d="M343.7,448.7c0-3.1-2.5-5.7-5.7-5.7s-5.7,2.5-5.7,5.7v7.7" fill="none" stroke="#001c4c" stroke-miterlimit="10" stroke-width="4"/>
              <path d="M355,448.7c0,3.1-2.5,5.7-5.7,5.7s-5.7-2.5-5.7-5.7" fill="none" stroke="#001c4c" stroke-miterlimit="10" stroke-width="4"/>
              <path d="M355,448.7c0-3.1,2.5-5.7,5.7-5.7s5.7,2.5,5.7,5.7" fill="none" stroke="#001c4c" stroke-miterlimit="10" stroke-width="4"/>
              <path d="M377.7,448.7c0,3.1-2.5,5.7-5.7,5.7s-5.7-2.5-5.7-5.7" fill="none" stroke="#001c4c" stroke-miterlimit="10" stroke-width="4"/>
            </g>
            <path d="M293.3,549.9l6.2-27.9c3.8-17,5.1-34.5,3.8-51.9l-.5-6.2h52.9l-.5,6.2c-1.3,17.4,0,34.9,3.8,51.9l6.2,27.9v9.5h-72v-9.5Z" fill="none" stroke="#001c4c" stroke-miterlimit="10" stroke-width="4"/>
            <path d="M362,478.9h29.4l-.4,5.2c-1.1,14.7,0,29.4,3.2,43.7l5.2,22v9.5h-27.2" fill="none" stroke="#001c4c" stroke-miterlimit="10" stroke-width="4"/>
            <line x1="362" y1="489" x2="390.8" y2="489" fill="none" stroke="#001c4c" stroke-miterlimit="10" stroke-width="4"/>
            <line x1="403.5" y1="559.4" x2="258.2" y2="559.4" fill="none" stroke="#001c4c" stroke-linecap="square" stroke-miterlimit="10" stroke-width="4"/>
          </g>
        </g>
        <g>
          <path d="M333.5,511.5c0,1.2-.5,2.2-1.2,3-.8.8-1.8,1.2-3,1.2s-2.2-.5-3-1.2c-.8-.8-1.2-1.8-1.2-3s.5-2.2,1.2-3c.8-.8,1.8-1.2,3-1.2s2.2.5,3,1.2c.8.8,1.2,1.8,1.2,3Z" fill="none" stroke="#001c4c" stroke-miterlimit="10" stroke-width="4"/>
          <g>
            <path d="M323,502c1.2-.8,2.7-1.4,4.2-1.7,1.6-.3,3.1-.2,4.5,0s2.8.9,4,1.7" fill="none" stroke="#001c4c" stroke-miterlimit="10" stroke-width="4"/>
            <path d="M319.2,496.2c2-1.3,4.3-2.3,6.8-2.7,2.5-.5,5-.4,7.3.1,2.3.5,4.5,1.5,6.4,2.8" fill="none" stroke="#001c4c" stroke-miterlimit="10" stroke-width="4"/>
          </g>
          <g>
            <path d="M340.7,511.4c0,1.5-.3,3-.9,4.5s-1.5,2.7-2.5,3.8c-1.1,1-2.3,1.9-3.6,2.4" fill="none" stroke="#001c4c" stroke-miterlimit="10" stroke-width="4"/>
            <path d="M347.6,511.4c0,2.4-.4,4.8-1.4,7.1-1,2.3-2.4,4.4-4,6.1-1.7,1.7-3.7,3-5.9,3.9" fill="none" stroke="#001c4c" stroke-miterlimit="10" stroke-width="4"/>
          </g>
          <g>
            <path d="M323.7,521.6c-1.3-.7-2.5-1.7-3.5-2.9-1-1.2-1.7-2.6-2.1-4.1-.4-1.4-.5-2.9-.3-4.4" fill="none" stroke="#001c4c" stroke-miterlimit="10" stroke-width="4"/>
            <path d="M320.4,527.6c-2.1-1.1-4-2.7-5.6-4.7-1.6-2-2.7-4.2-3.3-6.5-.6-2.3-.8-4.7-.5-7" fill="none" stroke="#001c4c" stroke-miterlimit="10" stroke-width="4"/>
          </g>
        </g>
      </g>
      <g>
        <path d="M297.1,494.3h-22.7l.3,4.2c.9,11.9,0,23.8-2.6,35.4l-4.2,16v9.5h20" fill="none" stroke="#001c4c" stroke-miterlimit="10" stroke-width="4"/>
        <line x1="296.3" y1="502.4" x2="274.9" y2="502.4" fill="none" stroke="#001c4c" stroke-miterlimit="10" stroke-width="4"/>
      </g>
    </g>
    <g>
      <g>
        <path d="M677,489.9c.4,4.7-3.1,8.7-7.8,9.1-4.7.4-8.7-3.1-9.1-7.8-.4-4.7,3.1-8.7,7.8-9.1,4.7-.4,8.7,3.1,9.1,7.8Z" fill="none" stroke="#001c4c" stroke-miterlimit="10" stroke-width="4"/>
        <path d="M664.9,497.5h0l-44.8,26.2s0,0,0,0l.6-2.1c4.8-18.1,21.4-30.6,40.1-30.1h0" fill="none" stroke="#001c4c" stroke-miterlimit="10" stroke-width="4"/>
        <path d="M676.4,490.2h0l45.1,25.7s0,0,0,0l-2.1.6c-18.1,4.9-37.2-3.2-46.1-19.7h0" fill="none" stroke="#001c4c" stroke-miterlimit="10" stroke-width="4"/>
        <path d="M664.3,483.9h0l-.3-51.9s0,0,0,0l1.6,1.6c13.3,13.2,15.8,33.8,6,49.8h0" fill="none" stroke="#001c4c" stroke-miterlimit="10" stroke-width="4"/>
        <path d="M661.5,571.1v-37c0-2.5.6-5,1.7-7.3h0c1.1-2.3,1.7-4.8,1.7-7.3v-20.5" fill="none" stroke="#001c4c" stroke-miterlimit="10" stroke-width="4"/>
        <path d="M672.8,499v20.5c0,2.5.6,5,1.7,7.3h0c1.1,2.3,1.7,4.8,1.7,7.3v37" fill="none" stroke="#001c4c" stroke-miterlimit="10" stroke-width="4"/>
        <line x1="735.3" y1="571.1" x2="602.4" y2="571.1" fill="none" stroke="#001c4c" stroke-miterlimit="10" stroke-width="4"/>
        <path d="M634.5,457.5h4.6c6.4,0,11.6,5.2,11.6,11.6h0c0,6.4-5.2,11.6-11.6,11.6h-16.9" fill="none" stroke="#001c4c" stroke-miterlimit="10" stroke-width="4"/>
        <path d="M632.2,533.1h4.8c4.3,0,7.9,3.5,7.9,7.9h0c0,4.3-3.5,7.9-7.9,7.9h-24.8" fill="none" stroke="#001c4c" stroke-miterlimit="10" stroke-width="4"/>
        <path d="M619.3,452.3h3.2c2.9,0,5.2,2.3,5.2,5.2h0c0,2.9-2.3,5.2-5.2,5.2h-12.2" fill="none" stroke="#001c4c" stroke-miterlimit="10" stroke-width="4"/>
      </g>
      <line x1="626.5" y1="533.1" x2="620.1" y2="533.1" fill="none" stroke="#001c4c" stroke-miterlimit="10" stroke-width="4"/>
      <line x1="602.4" y1="480.8" x2="606.3" y2="480.8" fill="none" stroke="#001c4c" stroke-miterlimit="10" stroke-width="4"/>
      <line x1="602.4" y1="462.7" x2="606.3" y2="462.7" fill="none" stroke="#001c4c" stroke-miterlimit="10" stroke-width="4"/>
      <line x1="610.3" y1="480.8" x2="618.2" y2="480.8" fill="none" stroke="#001c4c" stroke-miterlimit="10" stroke-width="4"/>
    </g>
    <g>
      <path d="M630.7,837.9h-10.9c-.2,0-.4-.2-.4-.4v-19.8c0-.4-.6-.6-.8-.2l-16.9,28.2c-.2.3,0,.6.4.6h10.9c.2,0,.4.2.4.4v19.8c0,.4.6.6.8.2l16.9-28.2c.2-.3,0-.6-.4-.6Z" fill="none" stroke="#001c4c" stroke-miterlimit="10" stroke-width="4"/>
      <g>
        <line x1="589.3" y1="797.7" x2="643.5" y2="797.7" fill="none" stroke="#001c4c" stroke-miterlimit="10" stroke-width="4"/>
        <g>
          <g>
            <path d="M631.6,771.7c0-3.3-2.7-6-6-6s-6,2.7-6,6v8.1" fill="none" stroke="#001c4c" stroke-miterlimit="10" stroke-width="4"/>
            <path d="M643.5,771.7c0,3.3-2.7,6-6,6s-6-2.7-6-6" fill="none" stroke="#001c4c" stroke-miterlimit="10" stroke-width="4"/>
            <path d="M643.5,771.7c0-3.3,2.7-6,6-6s6,2.7,6,6" fill="none" stroke="#001c4c" stroke-miterlimit="10" stroke-width="4"/>
            <path d="M667.4,771.7c0,3.3-2.7,6-6,6s-6-2.7-6-6" fill="none" stroke="#001c4c" stroke-miterlimit="10" stroke-width="4"/>
          </g>
          <path d="M578.5,878.1l6.5-29.3c4-17.9,5.3-36.3,4-54.6l-.5-6.5h55.7l-.5,6.5c-1.3,18.3,0,36.8,4,54.6l6.5,29.3v10h-75.8v-10Z" fill="none" stroke="#001c4c" stroke-miterlimit="10" stroke-width="4"/>
          <line x1="722.2" y1="888.2" x2="569.3" y2="888.2" fill="none" stroke="#001c4c" stroke-linecap="square" stroke-miterlimit="10" stroke-width="4"/>
        </g>
      </g>
      <polyline points="653.8 835.3 713.4 835.3 713.4 888.2 627.9 888.2" fill="none" stroke="#001c4c" stroke-linecap="square" stroke-miterlimit="10" stroke-width="4"/>
      <rect x="668.8" y="820.4" width="38.5" height="14.9" fill="none" stroke="#001c4c" stroke-linecap="square" stroke-miterlimit="10" stroke-width="4"/>
      <polyline points="659.7 863.1 700.6 863.1 700.6 848.2 655.4 848.2" fill="none" stroke="#001c4c" stroke-linecap="square" stroke-miterlimit="10" stroke-width="4"/>
      <line x1="678" y1="848.2" x2="678" y2="863.1" fill="none" stroke="#001c4c" stroke-linecap="square" stroke-miterlimit="10" stroke-width="4"/>
    </g>
    <g>
      <g>
        <g>
          <g>
            <line x1="387.7" y1="793.2" x2="393.7" y2="793.2" fill="none" stroke="#001c4c" stroke-linecap="square" stroke-miterlimit="10" stroke-width="4"/>
            <line x1="307.9" y1="793.2" x2="314" y2="793.2" fill="none" stroke="#001c4c" stroke-linecap="square" stroke-miterlimit="10" stroke-width="4"/>
            <line x1="320.5" y1="762.8" x2="324.8" y2="767.1" fill="none" stroke="#001c4c" stroke-linecap="square" stroke-miterlimit="10" stroke-width="4"/>
            <line x1="350.8" y1="750.3" x2="350.8" y2="756.3" fill="none" stroke="#001c4c" stroke-linecap="square" stroke-miterlimit="10" stroke-width="4"/>
            <line x1="381.2" y1="762.8" x2="376.9" y2="767.1" fill="none" stroke="#001c4c" stroke-linecap="square" stroke-miterlimit="10" stroke-width="4"/>
          </g>
          <path d="M352.3,820.5c1.6,0,3.2-.3,4.7-.7,12.1-2.8,21.1-13.7,21.1-26.6s-12.2-27.3-27.3-27.3-27.3,12.2-27.3,27.3.7,7.2,2,10.4c.6,1.5,1.4,3,2.2,4.3" fill="none" stroke="#001c4c" stroke-miterlimit="10" stroke-width="4"/>
          <g>
            <line x1="314" y1="793.2" x2="307.9" y2="793.2" fill="none" stroke="#001c4c" stroke-linecap="square" stroke-miterlimit="10" stroke-width="4"/>
            <line x1="393.7" y1="793.2" x2="387.7" y2="793.2" fill="none" stroke="#001c4c" stroke-linecap="square" stroke-miterlimit="10" stroke-width="4"/>
            <line x1="381.2" y1="823.5" x2="376.9" y2="819.2" fill="none" stroke="#001c4c" stroke-linecap="square" stroke-miterlimit="10" stroke-width="4"/>
          </g>
        </g>
        <path d="M265.3,807.9h85.2l8.2,57.5s0,0,0,0h-101.5s0,0,0,0l8.2-57.5Z" fill="none" stroke="#001c4c" stroke-miterlimit="10" stroke-width="4"/>
        <polygon points="267.1 857.3 272 816.1 343.8 816.1 348.7 857.3 267.1 857.3" fill="none" stroke="#001c4c" stroke-miterlimit="10" stroke-width="4"/>
        <line x1="307.9" y1="816.1" x2="307.9" y2="857.3" fill="none" stroke="#001c4c" stroke-miterlimit="10" stroke-width="4"/>
        <line x1="286.7" y1="857.4" x2="289.1" y2="816" fill="none" stroke="#001c4c" stroke-miterlimit="10" stroke-width="4"/>
        <line x1="267.1" y1="857.3" x2="272" y2="816.1" fill="none" stroke="#001c4c" stroke-miterlimit="10" stroke-width="4"/>
        <line x1="329.1" y1="857.4" x2="326.7" y2="816" fill="none" stroke="#001c4c" stroke-miterlimit="10" stroke-width="4"/>
        <line x1="346.3" y1="843.6" x2="269.6" y2="843.6" fill="none" stroke="#001c4c" stroke-miterlimit="10" stroke-width="4"/>
        <line x1="346.3" y1="829.8" x2="269.6" y2="829.8" fill="none" stroke="#001c4c" stroke-miterlimit="10" stroke-width="4"/>
        <rect x="257.1" y="865.5" width="101.6" height="9.7" fill="none" stroke="#001c4c" stroke-miterlimit="10" stroke-width="4"/>
        <polyline points="299.6 891.9 299.6 875.1 316.3 875.1 316.3 891.9" fill="none" stroke="#001c4c" stroke-miterlimit="10" stroke-width="4"/>
      </g>
      <line x1="346.3" y1="891.9" x2="269.6" y2="891.9" fill="none" stroke="#001c4c" stroke-miterlimit="10" stroke-width="4"/>
    </g>
    <g>
      <path d="M495.9,668.9h-9.7c-.1,0-.2,0-.2-.2l2.9-17.5c0-.2-.2-.3-.3-.1l-17.8,24.7c0,.1,0,.3.1.3h9.7c.1,0,.2,0,.2.2l-2.9,17.5c0,.2.2.3.3.1l17.8-24.7c0-.1,0-.3-.1-.3Z" fill="none" stroke="#001c4c" stroke-miterlimit="10" stroke-width="4"/>
      <path d="M547.5,740.6c-3.1-3.1-8.2-3.1-11.3,0l-.5.5c-3.1,3.1-8.2,3.1-11.3,0l-.5-.5c-3.1-3.1-8.2-3.1-11.3,0l-.4.4c-3.1,3.1-8.2,3.1-11.3,0h0c-3.1-3.2-8.2-3.2-11.3,0h0c-3.1,3.1-8.2,3.1-11.3,0l-.6-.6c-3.1-3.1-8.2-3.1-11.3,0l-.5.5c-3.1,3.1-8.2,3.1-11.3,0l-.5-.5c-3.1-3.1-8.2-3.1-11.3,0l-.4.4c-3.1,3.1-8.2,3.1-11.3,0h0c-3.1-3.2-8.2-3.2-11.3,0" fill="none" stroke="#001c4c" stroke-miterlimit="10" stroke-width="4"/>
      <path d="M547.5,724.1c-3.1-3.1-8.2-3.1-11.3,0l-.5.5c-3.1,3.1-8.2,3.1-11.3,0l-.5-.5c-3.1-3.1-8.2-3.1-11.3,0l-.4.4c-3.1,3.1-8.2,3.1-11.3,0h0c-3.1-3.2-8.2-3.2-11.3,0h0c-3.1,3.1-8.2,3.1-11.3,0l-.6-.6c-3.1-3.1-8.2-3.1-11.3,0l-.5.5c-3.1,3.1-8.2,3.1-11.3,0l-.5-.5c-3.1-3.1-8.2-3.1-11.3,0l-.4.4c-3.1,3.1-8.2,3.1-11.3,0h0c-3.1-3.2-8.2-3.2-11.3,0" fill="none" stroke="#001c4c" stroke-miterlimit="10" stroke-width="4"/>
      <path d="M547.5,707.7c-3.1-3.1-8.2-3.1-11.3,0l-.5.5c-3.1,3.1-8.2,3.1-11.3,0l-.5-.5c-3.1-3.1-8.2-3.1-11.3,0l-.4.4c-3.1,3.1-8.2,3.1-11.3,0h0c-3.1-3.2-8.2-3.2-11.3,0h0c-3.1,3.1-8.2,3.1-11.3,0l-.6-.6c-3.1-3.1-8.2-3.1-11.3,0l-.5.5c-3.1,3.1-8.2,3.1-11.3,0l-.5-.5c-3.1-3.1-8.2-3.1-11.3,0l-.4.4c-3.1,3.1-8.2,3.1-11.3,0h0c-3.1-3.2-8.2-3.2-11.3,0" fill="none" stroke="#001c4c" stroke-miterlimit="10" stroke-width="4"/>
      <line x1="525.4" y1="638.4" x2="441.4" y2="638.4" fill="none" stroke="#001c4c" stroke-miterlimit="10" stroke-width="4"/>
      <path d="M514.9,706.5c0-.3.2-.7.3-1,6.8-26.2,10.3-53.2,10.3-80.3v-1.2h16.4v82.3" fill="none" stroke="#001c4c" stroke-miterlimit="10" stroke-width="4"/>
      <path d="M425.1,706.3v-82.3h16.4c0,27.5,3.6,54.9,10.6,81.5" fill="none" stroke="#001c4c" stroke-miterlimit="10" stroke-width="4"/>
    </g>
  </g>
</svg>