<?xml version="1.0" encoding="UTF-8"?>
<svg id="Capa_2" data-name="Capa 2" xmlns="http://www.w3.org/2000/svg" xmlns:xlink="http://www.w3.org/1999/xlink" viewBox="0 0 672.8 1686.4">
  <defs>
    <linearGradient id="Degradado_sin_nombre_6" data-name="Degradado sin nombre 6" x1="77.5" y1="15433.7" x2="244.3" y2="15252.6" gradientTransform="translate(447.8 5111.2) scale(.2 -.2)" gradientUnits="userSpaceOnUse">
      <stop offset="0" stop-color="#0186f5"/>
      <stop offset=".1" stop-color="#0186f5"/>
      <stop offset=".3" stop-color="#35c2b0"/>
      <stop offset=".7" stop-color="#aad825"/>
      <stop offset="1" stop-color="#fed700"/>
    </linearGradient>
    <linearGradient id="Degradado_sin_nombre_2" data-name="Degradado sin nombre 2" x1="-52.6" y1="15267" x2="-51.2" y2="15380.6" gradientTransform="translate(447.8 5111.2) scale(.2 -.2)" gradientUnits="userSpaceOnUse">
      <stop offset="0" stop-color="#ff7f00"/>
      <stop offset="1" stop-color="#fe0201"/>
    </linearGradient>
    <linearGradient id="Degradado_sin_nombre_3" data-name="Degradado sin nombre 3" x1="110.9" y1="15501" x2="295" y2="15497.5" gradientTransform="translate(447.8 5111.2) scale(.2 -.2)" gradientUnits="userSpaceOnUse">
      <stop offset="0" stop-color="#0186f5"/>
      <stop offset=".2" stop-color="#0186f5"/>
      <stop offset="1" stop-color="#3156fd"/>
    </linearGradient>
    <linearGradient id="Degradado_sin_nombre_4" data-name="Degradado sin nombre 4" x1="320.8" y1="15411.1" x2="337.8" y2="15444.5" gradientTransform="translate(447.8 5111.2) scale(.2 -.2)" gradientUnits="userSpaceOnUse">
      <stop offset="0" stop-color="#8434d5"/>
      <stop offset=".9" stop-color="#3156fd"/>
      <stop offset="1" stop-color="#3156fd"/>
    </linearGradient>
    <linearGradient id="Degradado_sin_nombre_5" data-name="Degradado sin nombre 5" x1="285.8" y1="15401.8" x2="144.5" y2="15395.2" gradientTransform="translate(447.8 5111.2) scale(.2 -.2)" gradientUnits="userSpaceOnUse">
      <stop offset="0" stop-color="#8434d5"/>
      <stop offset="1" stop-color="#fe0201"/>
    </linearGradient>
  </defs>
  <g id="Capa_1-2" data-name="Capa 1">
    <g>
      <rect x="81.4" width="497.3" height="115.2" rx="2" ry="2" fill="#001c4c"/>
      <g>
        <path d="M188.2,64.4h-13.5v9.1h15.8v5.6h-22.9v-34.1h22.8v5.7h-15.8v8.1h13.5v5.5Z" fill="#fff"/>
        <path d="M222.5,79.2h-7l-13.7-22.5v22.5h-7v-34.1h7l13.7,22.5v-22.5h7v34.1Z" fill="#fff"/>
        <path d="M249.1,64.4h-13.5v9.1h15.8v5.6h-22.9v-34.1h22.8v5.7h-15.8v8.1h13.5v5.5Z" fill="#fff"/>
        <path d="M268.2,66.7h-5.6v12.5h-7v-34.1h12.7c4,0,7.1.9,9.3,2.7s3.3,4.3,3.3,7.6-.5,4.3-1.5,5.8-2.5,2.8-4.6,3.7l7.4,13.9v.3h-7.5l-6.4-12.5ZM262.6,61h5.7c1.8,0,3.1-.4,4.1-1.3s1.5-2.1,1.5-3.7-.5-2.9-1.4-3.8-2.3-1.4-4.2-1.4h-5.6v10.2Z" fill="#fff"/>
        <path d="M313.2,74.8c-1.3,1.5-3.1,2.7-5.4,3.5s-4.9,1.3-7.7,1.3-5.5-.6-7.8-1.9-3.9-3.2-5.2-5.6-1.8-5.3-1.9-8.6v-2.3c0-3.4.6-6.4,1.7-8.8s2.8-4.4,5-5.7,4.7-2,7.6-2,7.2,1,9.5,2.9,3.6,4.7,4.1,8.4h-6.8c-.3-2-1-3.4-2.1-4.3s-2.5-1.4-4.4-1.4-4.2.9-5.5,2.7-1.9,4.5-1.9,8v2.2c0,3.6.7,6.3,2,8.1s3.4,2.7,6,2.7,4.5-.6,5.6-1.7v-5.9h-6.4v-5.2h13.4v13.6Z" fill="#fff"/>
        <path d="M339.5,64.4h-13.5v9.1h15.8v5.6h-22.9v-34.1h22.8v5.7h-15.8v8.1h13.5v5.5ZM332.1,35.8h7.4l-6.5,7.3h-5.5l4.6-7.3Z" fill="#fff"/>
        <path d="M371.6,50.7h-10.5v28.4h-7v-28.4h-10.3v-5.7h27.8v5.7Z" fill="#fff"/>
        <path d="M383.1,79.2h-7v-34.1h7v34.1Z" fill="#fff"/>
        <path d="M416.4,67.8c-.3,3.7-1.6,6.6-4.1,8.7s-5.7,3.2-9.7,3.2-7.8-1.5-10.3-4.4-3.8-7-3.8-12.1v-2.1c0-3.3.6-6.2,1.7-8.7s2.8-4.4,5-5.8,4.6-2,7.5-2,7.1,1.1,9.5,3.2,3.8,5.1,4.2,8.9h-7c-.2-2.2-.8-3.8-1.8-4.8s-2.7-1.5-4.8-1.5-4.1.8-5.3,2.5-1.8,4.3-1.8,7.8v2.6c0,3.7.6,6.4,1.7,8.1s2.9,2.6,5.3,2.6,3.8-.5,4.9-1.5,1.7-2.5,1.8-4.6h7Z" fill="#fff"/>
        <path d="M440.3,72.1h-12.3l-2.3,7h-7.5l12.7-34.1h6.5l12.8,34.1h-7.5l-2.4-7ZM429.9,66.4h8.5l-4.3-12.8-4.2,12.8Z" fill="#fff"/>
        <path d="M471,70.2c0-1.3-.5-2.3-1.4-3.1s-2.6-1.5-5.1-2.2-4.4-1.6-5.8-2.3c-3.9-2.1-5.8-4.9-5.8-8.5s.5-3.5,1.6-4.9,2.5-2.6,4.5-3.4,4.1-1.2,6.6-1.2,4.6.4,6.5,1.3,3.4,2.1,4.4,3.7,1.6,3.4,1.6,5.5h-7c0-1.6-.5-2.8-1.5-3.6s-2.4-1.3-4.1-1.3-3.1.4-4,1.1-1.4,1.7-1.4,2.9.6,2,1.7,2.8,2.8,1.5,4.9,2.1c4,1.2,6.9,2.7,8.7,4.5s2.7,4,2.7,6.7-1.1,5.3-3.4,6.9-5.2,2.5-9,2.5-5-.5-7.2-1.4-3.8-2.3-4.9-3.9-1.7-3.6-1.7-5.8h7.1c0,3.8,2.2,5.6,6.8,5.6s3-.3,3.9-1,1.4-1.6,1.4-2.8Z" fill="#fff"/>
      </g>
    </g>
    <g>
      <image width="1024" height="215" transform="translate(3.4 1189) scale(.2)" xlink:href="logos/Endesa.svg.png"/>
      <image width="750" height="196" transform="translate(368.6 1307.7) scale(.2)" xlink:href="logos/Logo_de_Holaluz_.png"/>
      <image width="1024" height="253" transform="translate(300.6 1167.9) scale(.4)" xlink:href="logos/Logo_Iberdrola_(2023).svg.png"/>
      <g id="Artboard">
        <g id="Logo_naturgy" data-name="Logo naturgy">
          <g id="Group-18">
            <path id="Fill-1" d="M294.3,1308.1c.3-.3.6-.4.8-.4.3,0,.5.2.5.7,0,3.1-15.2,21-19.6,25.2-3.6,3.5-6.2,5.7-7.7,5.7s-.8-.2-.8-.9c0-2.3,3.4-8.4,3.4-8.4v-.2l-6.3,5.7c-1.5,1.3-3.3,1.9-4.9,1.9-2.9,0-5.5-2.3-5.5-7.7v-28.9c0-1.2.8-1.8,1.8-1.8s1.3.2,2,.7c4.4,2.9,10.2,8.3,14.7,15.7.7,1.2,1,2.3,1,3.5,0,3.8-3,7.5-6,10.9v.2l26.7-22Z" fill="#e57200" fill-rule="evenodd"/>
            <path id="Fill-3" d="M121.4,1335.4v3.6c0,.5-.2.7-1,.9-1.1.2-2.5.4-3.8.4-3.4,0-4.5-.9-4.5-2.6s.2-1.1.6-1.5c.5-.5,1.5-.8,3-.8h5.8ZM126.3,1344.3c1.2-.5,1.6-1.3,1.6-2.7v-10c0-4-.7-6.3-2.4-7.9-1.8-1.7-4.7-2.5-9.4-2.5s-4.8.2-6.5.5c-1.6.3-2.2,1.1-2.2,2.6s0,2.1.2,2.8c0,.4.3.5.8.5,2.6-.4,4.9-.6,7-.6s4.2.2,5,.8c.6.5.8,1.2.8,2.5v.8c-2-.3-4.3-.4-5.9-.4-3.8,0-6.5.7-8.2,2.3-1.3,1.2-2,3-2,5.1,0,4.8,3.4,7.8,11.1,7.8s7.7-.6,9.9-1.5h0Z" fill="#004571" fill-rule="evenodd"/>
            <path id="Fill-5" d="M185.1,1331.4c0-1.9.3-2.7.8-3.3.6-.7,1.7-1,3.5-1s1.7,0,2.8.2c.5,0,.7-.1.8-.6.1-.6.2-1.6.2-2.4,0-1.3-.4-2.1-1.4-2.5-.8-.4-2.4-.7-4.4-.7s-4.9.6-6.5,2.1c-1.5,1.3-2.4,3.4-2.4,7v14.5c0,.5.3.7.7.7h5.9v-13.9Z" fill="#004571" fill-rule="evenodd"/>
            <path id="Fill-7" d="M139.2,1321.6v-7h-5.3c-1,0-1.2.4-1.2,1.2v21.3c0,3.2.7,5,2,6.3,1.5,1.5,3.6,2.3,6.6,2.3s4.4-.5,6.1-1.3c1.3-.6,1.8-1.1,1.8-2s0-.7-.2-1.1c-.2-.6-.5-1.6-.8-2.2-.1-.3-.3-.4-.5-.4s-.2,0-.4,0c-1.7.5-3.6.9-4.9.9s-1.9-.2-2.4-.7c-.5-.5-.7-1.4-.7-2.7v-8.7h6.1c.9,0,1.4-.2,1.7-.8.3-.5.4-1.3.4-2.3s0-1.8-.2-2.3c0-.4-.3-.5-.7-.5h-7.3Z" fill="#004571" fill-rule="evenodd"/>
            <path id="Fill-9" d="M174,1321.6h-5.3c-1,0-1.3.4-1.3,1.2v12.4c0,1.6-.3,2.6-1,3.3-.7.7-1.8,1.2-3.4,1.2s-2.6-.4-3.4-1.2c-.7-.7-1-1.7-1-3.3v-13.6h-5.3c-1,0-1.3.4-1.3,1.2v13.3c0,3,.9,5.2,2.4,6.8,1.9,1.9,4.8,2.9,8.5,2.9s6.6-1,8.5-2.9c1.6-1.6,2.4-3.8,2.4-6.8v-14.5Z" fill="#004571" fill-rule="evenodd"/>
            <path id="Fill-11" d="M206.3,1354.5c4.5,0,7.5-1,9.5-3,1.8-1.9,2.6-4.5,2.6-8v-10.8c0-3.7-1-6.4-2.8-8.2-2-2.1-5.3-3.3-8.7-3.3-7.4,0-12.1,4.7-12.1,12.4s3.8,12,10.5,12,5.1-1.1,6.6-2.8v1c0,1.7-.3,2.8-1.1,3.6-.9,1-2.8,1.4-5.4,1.4s-3.9-.2-5.8-.5c-.6,0-1,.2-1.1.9,0,.7-.1,1.7-.1,2.3,0,1.6.5,2.3,2.2,2.6,1.6.3,3.9.5,5.9.5M211.8,1332.6v.7c0,2.3-.5,4.1-1.5,5.2-.8.9-2,1.3-3.6,1.3-3.7,0-5.2-2.5-5.2-6.3s2.1-6.3,5.2-6.3,2.8.5,3.7,1.4c.9.9,1.4,2.3,1.4,4.1" fill="#004571" fill-rule="evenodd"/>
            <path id="Fill-13" d="M100.9,1313.6v28.5c0,1.1-.2,1.9-.7,2.4-.7.7-1.9,1-3.6,1s-1.9-.1-2.6-.3c-.6-.2-1-.5-1.4-1-4.1-5.6-9.7-13.2-14.4-19.7v20c0,.7-.2,1-1,1h-5.9v-28.5c0-1.1.2-1.9.7-2.4.7-.7,1.9-1,3.6-1s1.9.1,2.6.3c.7.2,1,.5,1.4,1,3.6,5,9.2,12.6,14.4,19.8v-20.1c0-.7.3-1,1-1h5.9Z" fill="#004571" fill-rule="evenodd"/>
            <path id="Fill-16" d="M226.6,1348.3c-.7-.1-1,.3-1.1.9,0,.5-.2,1.6-.2,2.3,0,1.4.4,2.2,2.2,2.6,1.5.3,3.9.5,5.8.5,4.2,0,7.1-1.1,8.9-3,1.8-2,2.5-4.8,2.5-8.8v-21.2h-5.4c-.8,0-1.1.4-1.1,1.2v11.5c0,1.9-.4,3.2-1.1,4-.8.9-2,1.3-3.6,1.3s-2.4-.4-3.1-1.1c-.7-.8-1-1.9-1-3.8v-13.2h-5.4c-.9,0-1.2.5-1.2,1.2v12.6c0,3.5.8,5.9,2.4,7.5,1.6,1.6,3.9,2.5,6.9,2.5s4.9-1.1,6.1-2.4v.6c0,1.6-.2,2.8-.9,3.6-.8,1-2.4,1.5-5.1,1.5s-3.9-.2-5.5-.5" fill="#004571" fill-rule="evenodd"/>
          </g>
        </g>
      </g>
      <image width="332" height="107" transform="translate(134.6 1406.2)" xlink:href="logos/logo-factor-25.png"/>
      <image width="280" height="232" transform="translate(64.2 1545.7) scale(.6)" xlink:href="logos/Repsol_company_logo.svg.png"/>
      <g id="layer1">
        <path id="path2847" d="M470.1,1566c-4.6,3.6-8.9,8.4-11.5,13.7-5.2,10.8-2.3,20.7,0,27.2,3,8.8,9.2,13.2,16.5,16.5,10.5,4.6,23.6,4.9,35.6,1.8,4.2-1.1,10.8-3.3,12.2-5.5,1.5-2.3,1.8-6.7-1.5-8.6-3.2-1.9-3.6-.4-13.2,1.7-6.7,1.5-14,1.7-22.8-2.1-5.6-2.4-9.3-6.1-10.6-11.1-3.7-14.4,4.3-19.8,5.8-20.7l-10.4-12.9Z" fill="url(#Degradado_sin_nombre_6)"/>
        <path id="path2847-3" d="M483.1,1583c-6.1-.5-18.3-1.8-31-4.1-19.7-3.5-42.8-8.3-50.2-8.9-14.2-1-16.6,17.5-5.2,20.6,6.4,1.8,24.1,0,28.4,8.4,1.3,2.6,4.8,12.3,8.7,24.4,1.5,4.7,14.1,4,11.7-6.1-1.3-5.8-4.4-21.3-4.4-21.3,0,0,35.9,3.8,38.8,4.1l3.2-17.1Z" fill="url(#Degradado_sin_nombre_2)"/>
        <path id="path2847-3-6" d="M499.3,1574.2c4.6.1,12.5,1.3,16.1,3.7l19.9,3.9c.2-11.1-5.9-17-12.7-20.4-5.2-2.6-12.4-4.7-23.3-4.3-10.4.4-21.3,2.7-30,9.7l10.4,12.9c4.9-3.1,11.1-5.7,19.5-5.5Z" fill="url(#Degradado_sin_nombre_3)"/>
        <path id="path2847-3-67" d="M515.1,1577s1,.7,1.5,1.1c2.2,2,2.9,4.4-3.7,5.4l5.2,16.1c11.8-3.2,17.1-10.2,17.2-18.7l-20.2-3.9Z" fill="url(#Degradado_sin_nombre_4)"/>
        <path id="path2847-3-0" d="M513.7,1583.5c-5.8,1-17.1,1.6-32.7-.5l-1.2,17.1c25.3,2.2,34.2.7,39.1-.6l-5.2-16.1Z" fill="url(#Degradado_sin_nombre_5)"/>
        <g id="text3093">
          <path id="path3095" d="M389.3,1645.4c0,.3.2.5.5.5h4.8v12.8h3.1s0-12.8,0-12.8h4.8c.3,0,.5-.2.5-.5v-2c0-.3-.2-.5-.5-.5h-12.7c-.3,0-.5.2-.5.5v2Z" fill="#fc0103"/>
          <path id="path3097" d="M400.5,1652.9c0,3.4,2.8,6,6.3,6s6.3-2.6,6.3-6-2.8-6-6.3-6-6.3,2.7-6.3,6ZM404,1652.9c0-1.6,1.2-2.9,2.8-2.9s2.8,1.3,2.8,2.9-1.2,2.9-2.8,2.9-2.8-1.3-2.8-2.9Z" fill="#fc0103"/>
          <path id="path3099" d="M415.2,1655.3c0,2.6,2,3.6,4,3.6s2.8-.2,3.6-.9c1.5-1.1.2-3.4-1.7-2.2-.6.3-1.6.2-1.7,0-.4-.2-1.1-.3-1.1-1.4v-4.9h2.9c2.2,0,2.2-2.8,0-2.8h-2.9v-3.9h-3.1s0,3.9,0,3.9h-1.5v2.8h1.5v5.7Z" fill="#fc0103"/>
          <path id="path3101" d="M424,1652.9c0,3.7,2.8,6,5.8,6s3.2-.7,3.7-1.5v1.6h2.9v-10.6c0-2.1-2.8-2-2.8-.1-.5-.9-2.2-1.4-3.8-1.4-3,0-5.8,2.3-5.8,6ZM427.5,1652.9c0-1.6,1.2-2.9,2.8-2.9s2.8,1.3,2.8,2.9-1.2,2.9-2.8,2.9-2.8-1.3-2.8-2.9Z" fill="#fc0103"/>
          <path id="path3103" d="M442.4,1658.7v-14.4c0-1.8-3.3-1.8-3.3,0v14.4h3.3Z" fill="#fc0103"/>
          <path id="path3105" d="M445.2,1642.7c-.3,0-.5.2-.5.5v14.9c0,.3.2.5.5.5h10.6v-3.2s-7.5,0-7.5,0v-3.1h5.9c.3,0,.5-.3.5-.5v-2.1c0-.3-.2-.5-.5-.5h-5.9v-3.4h6.8c.3,0,.5-.2.5-.5v-2.1c0-.3-.2-.5-.5-.5h-9.8Z" fill="#fc0103"/>
          <path id="path3107" d="M466.4,1658.3c0,.3.3.5.5.5h2.1c.3,0,.5-.2.5-.5v-6.3c0-2.8-1.6-5.3-4.7-5.3s-3.6.5-4.3,1.3c0-1.7-2.7-1.7-2.7-.1v10.9h3.1s0-6.4,0-6.4c0-4,5.5-3.3,5.5,0v5.9Z" fill="#fc0103"/>
          <path id="path3111" d="M491.6,1646.6c-1.7,0-3.1,1-3.7,2v-.8c0-1.4-2.6-1.6-2.6,0v10.8h3s0-5.5,0-5.5c0-1.7,1.1-3.5,2.3-3.7l1.2-.2c2,0,1.7-2.8-.3-2.8Z" fill="#fc0103"/>
          <path id="path3113" d="M499.8,1660.9c-1.6,0-3.1,0-3.9-.5-1.9-1.1-3.1,1.3-1.9,2,1.6.9,2.4,1.4,5.5,1.4s6-2.2,6-5.3v-10.6c0-1.4-2.7-1.6-2.7-.2v.7c-.6-.9-2.2-1.4-3.8-1.4-3,0-5.7,2.3-5.7,5.9s2.7,5.9,5.9,5.9,2.8-.7,3.3-1.4v1c0,1.5-.9,2.6-2.7,2.6ZM496.8,1652.9c0-1.6,1.2-2.8,2.8-2.8s2.8,1.2,2.8,2.8-1.2,2.8-2.8,2.8-2.8-1.2-2.8-2.8Z" fill="#fc0103"/>
          <path id="path3115" d="M509.7,1645.4c1,0,1.9-.9,1.9-1.9s-.8-1.9-1.9-1.9-1.9.9-1.9,1.9.8,1.9,1.9,1.9ZM510.8,1658.7c.3,0,.5-.2.5-.5v-9.8c0-2.1-3.1-2.1-3.1,0v9.8c0,.3.2.5.5.5h2.2Z" fill="#fc0103"/>
          <path id="path3117" d="M519.3,1646.7c-3.7,0-6.3,2.8-6.3,6.3s2.6,6.2,6.3,6.2,4.1-.8,5.1-2c.6-1-.8-2.3-2-1.6-1.1.7-1.9.6-3,.6s-2.6-.9-2.8-2.4h7.8c.5,0,.6-.3.6-.6v-.7c0-3-2-5.9-5.7-5.9ZM522,1651.6h-5.2c.3-1.3,1.4-2.1,2.6-2.1s2.3.7,2.6,2.1Z" fill="#fc0103"/>
          <path id="path3119" d="M531.4,1646.6c-3.2,0-5.2,1.7-5.2,3.9s1.3,3.1,3.3,3.5l2,.4c1.1.2,1.7.5,1.7,1s-.5,1-1.7,1-2.4-.2-3.2-.9c-1.7-.9-3.2,1-1.5,2.3,1,.7,2.6,1.3,4.6,1.3,3.3,0,5.5-1.7,5.5-4s-1.7-3.2-3.7-3.6l-1.9-.4c-1-.2-1.4-.5-1.4-1s.6-.9,1.6-.9,1.9.1,2.6.6c1.5.9,3-1,1.6-2.1-.7-.7-1.8-1.2-4.3-1.2h0Z" fill="#fc0103"/>
          <path id="path3117-5" d="M477.7,1646.7c-3.7,0-6.3,2.8-6.3,6.3s2.6,6.2,6.3,6.2,4.1-.8,5.1-2c.6-1-.8-2.3-2-1.6-1.1.7-1.9.6-3,.6s-2.6-.9-2.8-2.4h7.8c.5,0,.6-.3.6-.6v-.7c0-3-2-5.9-5.7-5.9ZM480.3,1651.6h-5.2c.3-1.3,1.4-2.1,2.6-2.1s2.3.7,2.6,2.1Z" fill="#fc0103"/>
        </g>
      </g>
    </g>
    <g>
      <rect y="959.1" width="672.8" height="130.4" rx="2" ry="2" fill="#001c4c"/>
      <g>
        <path d="M116.8,1031.3c-.3,3.7-1.6,6.6-4.1,8.7s-5.7,3.2-9.7,3.2-7.8-1.5-10.3-4.4-3.8-7-3.8-12.1v-2.1c0-3.3.6-6.2,1.7-8.7s2.8-4.4,5-5.8,4.6-2,7.5-2,7.1,1.1,9.5,3.2,3.8,5.1,4.2,8.9h-7c-.2-2.2-.8-3.8-1.8-4.8s-2.7-1.5-4.8-1.5-4.1.8-5.3,2.5-1.8,4.3-1.8,7.8v2.6c0,3.7.6,6.4,1.7,8.1s2.9,2.6,5.3,2.6,3.8-.5,4.9-1.5,1.7-2.5,1.8-4.6h7Z" fill="#fff"/>
        <path d="M149.4,1026.4c0,3.4-.6,6.3-1.8,8.8s-2.9,4.5-5.1,5.9-4.7,2.1-7.6,2.1-5.4-.7-7.6-2-3.9-3.3-5.2-5.8-1.8-5.4-1.9-8.7v-1.7c0-3.4.6-6.3,1.8-8.9s2.9-4.5,5.1-5.9,4.7-2.1,7.6-2.1,5.4.7,7.6,2.1,3.9,3.3,5.1,5.9,1.8,5.5,1.8,8.8v1.5ZM142.3,1024.9c0-3.6-.6-6.3-1.9-8.2s-3.1-2.8-5.5-2.8-4.2.9-5.5,2.8-1.9,4.5-1.9,8.1v1.7c0,3.5.6,6.2,1.9,8.1s3.1,2.9,5.5,2.9,4.2-.9,5.4-2.8,1.9-4.6,1.9-8.1v-1.7Z" fill="#fff"/>
        <path d="M163.7,1008.6l8.8,24.8,8.7-24.8h9.2v34.1h-7.1v-9.3l.7-16.1-9.2,25.4h-4.8l-9.2-25.4.7,16.1v9.3h-7v-34.1h9.2Z" fill="#fff"/>
        <path d="M217.1,1027.9h-13.5v9.1h15.8v5.6h-22.9v-34.1h22.8v5.7h-15.8v8.1h13.5v5.5Z" fill="#fff"/>
        <path d="M236.2,1030.2h-5.6v12.5h-7v-34.1h12.7c4,0,7.1.9,9.3,2.7s3.3,4.3,3.3,7.6-.5,4.3-1.5,5.8-2.5,2.8-4.6,3.7l7.4,13.9v.3h-7.5l-6.4-12.5ZM230.6,1024.5h5.7c1.8,0,3.1-.4,4.1-1.3s1.5-2.1,1.5-3.7-.5-2.9-1.4-3.8-2.3-1.4-4.2-1.4h-5.6v10.2Z" fill="#fff"/>
        <path d="M281,1031.3c-.3,3.7-1.6,6.6-4.1,8.7s-5.7,3.2-9.7,3.2-7.8-1.5-10.3-4.4-3.8-7-3.8-12.1v-2.1c0-3.3.6-6.2,1.7-8.7s2.8-4.4,5-5.8,4.6-2,7.5-2,7.1,1.1,9.5,3.2,3.8,5.1,4.2,8.9h-7c-.2-2.2-.8-3.8-1.8-4.8s-2.7-1.5-4.8-1.5-4.1.8-5.3,2.5-1.8,4.3-1.8,7.8v2.6c0,3.7.6,6.4,1.7,8.1s2.9,2.6,5.3,2.6,3.8-.5,4.9-1.5,1.7-2.5,1.8-4.6h7Z" fill="#fff"/>
        <path d="M293.1,1042.7h-7v-34.1h7v34.1Z" fill="#fff"/>
        <path d="M318.9,1035.7h-12.3l-2.3,7h-7.5l12.7-34.1h6.5l12.8,34.1h-7.5l-2.4-7ZM308.5,1030h8.5l-4.3-12.8-4.2,12.8Z" fill="#fff"/>
        <path d="M339,1037h14.9v5.6h-22v-34.1h7v28.5Z" fill="#fff"/>
        <path d="M365.4,1042.7h-7v-34.1h7v34.1Z" fill="#fff"/>
        <path d="M379.4,1037h17.2v5.6h-26v-4.1l16.9-24.3h-16.9v-5.7h25.6v4l-16.8,24.4Z" fill="#fff"/>
        <path d="M420.6,1035.7h-12.3l-2.3,7h-7.5l12.7-34.1h6.5l12.8,34.1h-7.5l-2.4-7ZM410.1,1030h8.5l-4.3-12.8-4.2,12.8Z" fill="#fff"/>
        <path d="M433.6,1042.7v-34.1h10.5c3,0,5.7.7,8.1,2s4.2,3.3,5.5,5.8,2,5.3,2,8.5v1.6c0,3.2-.7,6-2,8.5s-3.1,4.4-5.5,5.7-5.1,2-8,2.1h-10.6ZM440.6,1014.3v22.8h3.4c2.8,0,4.9-.9,6.3-2.7s2.2-4.4,2.2-7.7v-1.8c0-3.5-.7-6.1-2.2-7.9s-3.5-2.7-6.3-2.7h-3.5Z" fill="#fff"/>
        <path d="M492.8,1026.4c0,3.4-.6,6.3-1.8,8.8s-2.9,4.5-5.1,5.9-4.7,2.1-7.6,2.1-5.4-.7-7.6-2-3.9-3.3-5.2-5.8-1.8-5.4-1.9-8.7v-1.7c0-3.4.6-6.3,1.8-8.9s2.9-4.5,5.1-5.9,4.7-2.1,7.6-2.1,5.4.7,7.6,2.1,3.9,3.3,5.1,5.9,1.8,5.5,1.8,8.8v1.5ZM485.7,1024.9c0-3.6-.6-6.3-1.9-8.2s-3.1-2.8-5.5-2.8-4.2.9-5.5,2.8-1.9,4.5-1.9,8.1v1.7c0,3.5.6,6.2,1.9,8.1s3.1,2.9,5.5,2.9,4.2-.9,5.4-2.8,1.9-4.6,1.9-8.1v-1.7Z" fill="#fff"/>
        <path d="M510.6,1030.2h-5.6v12.5h-7v-34.1h12.7c4,0,7.1.9,9.3,2.7s3.3,4.3,3.3,7.6-.5,4.3-1.5,5.8-2.5,2.8-4.6,3.7l7.4,13.9v.3h-7.5l-6.4-12.5ZM505,1024.5h5.7c1.8,0,3.1-.4,4.1-1.3s1.5-2.1,1.5-3.7-.5-2.9-1.4-3.8-2.3-1.4-4.2-1.4h-5.6v10.2Z" fill="#fff"/>
        <path d="M547.8,1035.7h-12.3l-2.3,7h-7.5l12.7-34.1h6.5l12.8,34.1h-7.5l-2.4-7ZM537.4,1030h8.5l-4.3-12.8-4.2,12.8Z" fill="#fff"/>
        <path d="M578.6,1033.7c0-1.3-.5-2.3-1.4-3.1s-2.6-1.5-5.1-2.2-4.4-1.6-5.8-2.3c-3.9-2.1-5.8-4.9-5.8-8.5s.5-3.5,1.6-4.9,2.5-2.6,4.5-3.4,4.1-1.2,6.6-1.2,4.6.4,6.5,1.3,3.4,2.1,4.4,3.7,1.6,3.4,1.6,5.5h-7c0-1.6-.5-2.8-1.5-3.6s-2.4-1.3-4.1-1.3-3.1.4-4,1.1-1.4,1.7-1.4,2.9.6,2,1.7,2.8,2.8,1.5,4.9,2.1c4,1.2,6.9,2.7,8.7,4.5s2.7,4,2.7,6.7-1.1,5.3-3.4,6.9-5.2,2.5-9,2.5-5-.5-7.2-1.4-3.8-2.3-4.9-3.9-1.7-3.6-1.7-5.8h7.1c0,3.8,2.2,5.6,6.8,5.6s3-.3,3.9-1,1.4-1.6,1.4-2.8Z" fill="#fff"/>
      </g>
    </g>
    <g>
      <g>
        <g>
          <g>
            <line x1="62.6" y1="248.1" x2="130" y2="248.1" fill="none" stroke="#001c4c" stroke-miterlimit="10" stroke-width="4"/>
            <g>
              <g>
                <path d="M115.1,215.8c0-4.1-3.3-7.4-7.4-7.4s-7.4,3.3-7.4,7.4v10" fill="none" stroke="#001c4c" stroke-miterlimit="10" stroke-width="4"/>
                <path d="M130,215.8c0,4.1-3.3,7.4-7.4,7.4s-7.4-3.3-7.4-7.4" fill="none" stroke="#001c4c" stroke-miterlimit="10" stroke-width="4"/>
                <path d="M130,215.8c0-4.1,3.3-7.4,7.4-7.4s7.4,3.3,7.4,7.4" fill="none" stroke="#001c4c" stroke-miterlimit="10" stroke-width="4"/>
                <path d="M159.6,215.8c0,4.1-3.3,7.4-7.4,7.4s-7.4-3.3-7.4-7.4" fill="none" stroke="#001c4c" stroke-miterlimit="10" stroke-width="4"/>
              </g>
              <path d="M49.3,348l8.1-36.4c4.9-22.2,6.6-45.1,4.9-67.8l-.6-8.1h69.1l-.6,8.1c-1.7,22.7,0,45.6,4.9,67.8l8.1,36.4v12.5H49.3v-12.5Z" fill="none" stroke="#001c4c" stroke-miterlimit="10" stroke-width="4"/>
              <path d="M139,255.4h38.4l-.5,6.8c-1.4,19.2,0,38.4,4.2,57.1l6.8,28.7v12.5h-35.5" fill="none" stroke="#001c4c" stroke-miterlimit="10" stroke-width="4"/>
              <line x1="139" y1="268.5" x2="176.7" y2="268.5" fill="none" stroke="#001c4c" stroke-miterlimit="10" stroke-width="4"/>
              <line x1="193.2" y1="360.5" x2="3.5" y2="360.5" fill="none" stroke="#001c4c" stroke-linecap="square" stroke-miterlimit="10" stroke-width="4"/>
            </g>
          </g>
          <g>
            <path d="M101.8,297.9c0,1.5-.6,2.9-1.6,3.9-1,1-2.4,1.6-3.9,1.6s-2.9-.6-3.9-1.6c-1-1-1.6-2.4-1.6-3.9s.6-2.9,1.6-3.9c1-1,2.4-1.6,3.9-1.6s2.9.6,3.9,1.6c1,1,1.6,2.4,1.6,3.9Z" fill="none" stroke="#001c4c" stroke-miterlimit="10" stroke-width="4"/>
            <g>
              <path d="M88.1,285.5c1.6-1.1,3.5-1.8,5.5-2.2,2-.4,4-.3,5.9,0s3.7,1.2,5.3,2.3" fill="none" stroke="#001c4c" stroke-miterlimit="10" stroke-width="4"/>
              <path d="M83.1,277.9c2.6-1.7,5.6-2.9,8.8-3.5,3.3-.6,6.5-.5,9.5.2,3,.7,5.9,1.9,8.4,3.7" fill="none" stroke="#001c4c" stroke-miterlimit="10" stroke-width="4"/>
            </g>
            <g>
              <path d="M111.2,297.8c0,1.9-.3,3.9-1.1,5.8s-1.9,3.6-3.3,4.9c-1.4,1.4-3,2.4-4.8,3.2" fill="none" stroke="#001c4c" stroke-miterlimit="10" stroke-width="4"/>
              <path d="M120.3,297.7c0,3.1-.5,6.3-1.8,9.3-1.3,3.1-3.1,5.7-5.3,7.9-2.2,2.2-4.8,3.9-7.6,5.1" fill="none" stroke="#001c4c" stroke-miterlimit="10" stroke-width="4"/>
            </g>
            <g>
              <path d="M89.1,311c-1.7-.9-3.2-2.2-4.5-3.8-1.3-1.6-2.2-3.4-2.7-5.3-.5-1.9-.7-3.8-.4-5.7" fill="none" stroke="#001c4c" stroke-miterlimit="10" stroke-width="4"/>
              <path d="M84.8,318.9c-2.7-1.5-5.2-3.6-7.3-6.2-2-2.6-3.5-5.5-4.3-8.5-.8-3-1-6.1-.7-9.2" fill="none" stroke="#001c4c" stroke-miterlimit="10" stroke-width="4"/>
            </g>
          </g>
        </g>
        <g>
          <path d="M54.3,275.4h-29.6l.4,5.5c1.1,15.5,0,31.1-3.4,46.2l-5.5,20.9v12.5h26.1" fill="none" stroke="#001c4c" stroke-miterlimit="10" stroke-width="4"/>
          <line x1="53.3" y1="286" x2="25.3" y2="286" fill="none" stroke="#001c4c" stroke-miterlimit="10" stroke-width="4"/>
        </g>
      </g>
      <g>
        <g>
          <path d="M550.5,269.6c.5,6.1-4.1,11.4-10.2,11.9-6.1.5-11.4-4.1-11.9-10.2-.5-6.1,4.1-11.4,10.2-11.9,6.1-.5,11.4,4.1,11.9,10.2Z" fill="none" stroke="#001c4c" stroke-miterlimit="10" stroke-width="4"/>
          <path d="M534.7,279.6h0l-58.5,34.2s0,0,0,0l.7-2.8c6.3-23.7,27.9-39.9,52.4-39.3h0" fill="none" stroke="#001c4c" stroke-miterlimit="10" stroke-width="4"/>
          <path d="M549.7,270.1h0l58.9,33.5s0,0,0,0l-2.8.8c-23.6,6.4-48.5-4.2-60.3-25.7h0" fill="none" stroke="#001c4c" stroke-miterlimit="10" stroke-width="4"/>
          <path d="M534,261.8h0l-.4-67.8s0,0,0,0l2,2c17.3,17.3,20.6,44.2,7.9,65.1h0" fill="none" stroke="#001c4c" stroke-miterlimit="10" stroke-width="4"/>
          <path d="M530.3,375.7v-48.4c0-3.3.8-6.6,2.2-9.5h0c1.5-3,2.2-6.2,2.2-9.5v-26.7" fill="none" stroke="#001c4c" stroke-miterlimit="10" stroke-width="4"/>
          <path d="M545,281.6v26.7c0,3.3.8,6.6,2.2,9.5h0c1.5,3,2.2,6.2,2.2,9.5v48.4" fill="none" stroke="#001c4c" stroke-miterlimit="10" stroke-width="4"/>
          <line x1="626.7" y1="375.7" x2="453" y2="375.7" fill="none" stroke="#001c4c" stroke-miterlimit="10" stroke-width="4"/>
          <path d="M495,227.4h6c8.4,0,15.2,6.8,15.2,15.2h0c0,8.4-6.8,15.2-15.2,15.2h-22" fill="none" stroke="#001c4c" stroke-miterlimit="10" stroke-width="4"/>
          <path d="M492,326.1h6.3c5.7,0,10.3,4.6,10.3,10.3h0c0,5.7-4.6,10.3-10.3,10.3h-32.4" fill="none" stroke="#001c4c" stroke-miterlimit="10" stroke-width="4"/>
          <path d="M475.1,220.6h4.2c3.8,0,6.8,3,6.8,6.8h0c0,3.8-3,6.8-6.8,6.8h-15.9" fill="none" stroke="#001c4c" stroke-miterlimit="10" stroke-width="4"/>
        </g>
        <line x1="484.6" y1="326.1" x2="476.1" y2="326.1" fill="none" stroke="#001c4c" stroke-miterlimit="10" stroke-width="4"/>
        <line x1="453" y1="257.8" x2="458.2" y2="257.8" fill="none" stroke="#001c4c" stroke-miterlimit="10" stroke-width="4"/>
        <line x1="453" y1="234.2" x2="458.2" y2="234.2" fill="none" stroke="#001c4c" stroke-miterlimit="10" stroke-width="4"/>
        <line x1="463.4" y1="257.8" x2="473.7" y2="257.8" fill="none" stroke="#001c4c" stroke-miterlimit="10" stroke-width="4"/>
      </g>
      <g>
        <path d="M490.1,724.2h-14.2c-.3,0-.6-.2-.6-.6v-25.8c0-.6-.7-.8-1-.3l-22.1,36.8c-.2.4,0,.8.5.8h14.2c.3,0,.6.2.6.6v25.8c0,.6.7.8,1,.3l22.1-36.8c.2-.4,0-.8-.5-.8Z" fill="none" stroke="#001c4c" stroke-miterlimit="10" stroke-width="4"/>
        <g>
          <line x1="435.9" y1="671.7" x2="506.8" y2="671.7" fill="none" stroke="#001c4c" stroke-miterlimit="10" stroke-width="4"/>
          <g>
            <g>
              <path d="M491.2,637.7c0-4.3-3.5-7.8-7.8-7.8s-7.8,3.5-7.8,7.8v10.6" fill="none" stroke="#001c4c" stroke-miterlimit="10" stroke-width="4"/>
              <path d="M506.8,637.7c0,4.3-3.5,7.8-7.8,7.8s-7.8-3.5-7.8-7.8" fill="none" stroke="#001c4c" stroke-miterlimit="10" stroke-width="4"/>
              <path d="M506.8,637.7c0-4.3,3.5-7.8,7.8-7.8s7.8,3.5,7.8,7.8" fill="none" stroke="#001c4c" stroke-miterlimit="10" stroke-width="4"/>
              <path d="M538,637.7c0,4.3-3.5,7.8-7.8,7.8s-7.8-3.5-7.8-7.8" fill="none" stroke="#001c4c" stroke-miterlimit="10" stroke-width="4"/>
            </g>
            <path d="M421.9,776.8l8.5-38.3c5.2-23.3,7-47.4,5.2-71.3l-.6-8.5h72.7l-.6,8.5c-1.8,23.9,0,48,5.2,71.3l8.5,38.3v13.1h-99v-13.1Z" fill="none" stroke="#001c4c" stroke-miterlimit="10" stroke-width="4"/>
            <line x1="609.5" y1="789.9" x2="409.9" y2="789.9" fill="none" stroke="#001c4c" stroke-linecap="square" stroke-miterlimit="10" stroke-width="4"/>
          </g>
        </g>
        <polyline points="520.2 720.9 598.1 720.9 598.1 789.9 486.3 789.9" fill="none" stroke="#001c4c" stroke-linecap="square" stroke-miterlimit="10" stroke-width="4"/>
        <rect x="539.9" y="701.4" width="50.3" height="19.5" fill="none" stroke="#001c4c" stroke-linecap="square" stroke-miterlimit="10" stroke-width="4"/>
        <polyline points="527.9 757.2 581.3 757.2 581.3 737.7 522.3 737.7" fill="none" stroke="#001c4c" stroke-linecap="square" stroke-miterlimit="10" stroke-width="4"/>
        <line x1="551.8" y1="737.7" x2="551.8" y2="757.2" fill="none" stroke="#001c4c" stroke-linecap="square" stroke-miterlimit="10" stroke-width="4"/>
      </g>
      <g>
        <g>
          <g>
            <g>
              <line x1="172.6" y1="665.8" x2="180.5" y2="665.8" fill="none" stroke="#001c4c" stroke-linecap="square" stroke-miterlimit="10" stroke-width="4"/>
              <line x1="68.4" y1="665.8" x2="76.3" y2="665.8" fill="none" stroke="#001c4c" stroke-linecap="square" stroke-miterlimit="10" stroke-width="4"/>
              <line x1="84.8" y1="626.2" x2="90.4" y2="631.8" fill="none" stroke="#001c4c" stroke-linecap="square" stroke-miterlimit="10" stroke-width="4"/>
              <line x1="124.5" y1="609.8" x2="124.5" y2="617.7" fill="none" stroke="#001c4c" stroke-linecap="square" stroke-miterlimit="10" stroke-width="4"/>
              <line x1="164.1" y1="626.2" x2="158.5" y2="631.8" fill="none" stroke="#001c4c" stroke-linecap="square" stroke-miterlimit="10" stroke-width="4"/>
            </g>
            <path d="M126.4,701.5c2.1-.1,4.2-.4,6.2-.9,15.8-3.7,27.6-17.8,27.6-34.8s-16-35.7-35.7-35.7-35.7,16-35.7,35.7.9,9.4,2.7,13.5c.8,2,1.8,3.9,2.9,5.6" fill="none" stroke="#001c4c" stroke-miterlimit="10" stroke-width="4"/>
            <g>
              <line x1="76.3" y1="665.8" x2="68.4" y2="665.8" fill="none" stroke="#001c4c" stroke-linecap="square" stroke-miterlimit="10" stroke-width="4"/>
              <line x1="180.5" y1="665.8" x2="172.6" y2="665.8" fill="none" stroke="#001c4c" stroke-linecap="square" stroke-miterlimit="10" stroke-width="4"/>
              <line x1="164.1" y1="705.5" x2="158.5" y2="699.9" fill="none" stroke="#001c4c" stroke-linecap="square" stroke-miterlimit="10" stroke-width="4"/>
            </g>
          </g>
          <path d="M12.8,685h111.3l10.7,75.2s0,0,0,0H2.1s0,0,0,0l10.7-75.2Z" fill="none" stroke="#001c4c" stroke-miterlimit="10" stroke-width="4"/>
          <polygon points="15.1 749.5 21.5 695.7 115.3 695.7 121.7 749.5 15.1 749.5" fill="none" stroke="#001c4c" stroke-miterlimit="10" stroke-width="4"/>
          <line x1="68.4" y1="695.7" x2="68.4" y2="749.5" fill="none" stroke="#001c4c" stroke-miterlimit="10" stroke-width="4"/>
          <line x1="40.7" y1="749.7" x2="43.9" y2="695.6" fill="none" stroke="#001c4c" stroke-miterlimit="10" stroke-width="4"/>
          <line x1="15.1" y1="749.5" x2="21.5" y2="695.7" fill="none" stroke="#001c4c" stroke-miterlimit="10" stroke-width="4"/>
          <line x1="96.1" y1="749.7" x2="92.9" y2="695.6" fill="none" stroke="#001c4c" stroke-miterlimit="10" stroke-width="4"/>
          <line x1="118.5" y1="731.7" x2="18.3" y2="731.7" fill="none" stroke="#001c4c" stroke-miterlimit="10" stroke-width="4"/>
          <line x1="118.5" y1="713.7" x2="18.3" y2="713.7" fill="none" stroke="#001c4c" stroke-miterlimit="10" stroke-width="4"/>
          <rect x="2" y="760.3" width="132.7" height="12.6" fill="none" stroke="#001c4c" stroke-miterlimit="10" stroke-width="4"/>
          <polyline points="57.5 794.7 57.5 772.9 79.3 772.9 79.3 794.7" fill="none" stroke="#001c4c" stroke-miterlimit="10" stroke-width="4"/>
        </g>
        <line x1="118.5" y1="794.7" x2="18.3" y2="794.7" fill="none" stroke="#001c4c" stroke-miterlimit="10" stroke-width="4"/>
      </g>
      <g>
        <path d="M314,503.5h-12.7c-.1,0-.2-.1-.2-.3l3.8-22.9c0-.2-.3-.4-.4-.2l-23.3,32.3c-.1.1,0,.3.2.3h12.7c.1,0,.2.1.2.3l-3.8,22.9c0,.2.3.4.4.2l23.3-32.3c.1-.1,0-.3-.2-.3Z" fill="none" stroke="#001c4c" stroke-miterlimit="10" stroke-width="4"/>
        <path d="M381.4,597.1c-4.1-4.1-10.7-4.1-14.8,0l-.7.7c-4.1,4.1-10.7,4.1-14.8,0l-.6-.6c-4.1-4.1-10.7-4.1-14.8,0l-.5.5c-4.1,4.1-10.7,4.1-14.8,0h-.1c-4.1-4.2-10.7-4.2-14.8-.1h0c-4.1,4.1-10.7,4.1-14.8,0l-.7-.7c-4.1-4.1-10.7-4.1-14.8,0l-.7.7c-4.1,4.1-10.7,4.1-14.8,0l-.6-.6c-4.1-4.1-10.7-4.1-14.8,0l-.5.5c-4.1,4.1-10.7,4.1-14.8,0h-.1c-4.1-4.2-10.7-4.2-14.8-.1" fill="none" stroke="#001c4c" stroke-miterlimit="10" stroke-width="4"/>
        <path d="M381.4,575.6c-4.1-4.1-10.7-4.1-14.8,0l-.7.7c-4.1,4.1-10.7,4.1-14.8,0l-.6-.6c-4.1-4.1-10.7-4.1-14.8,0l-.5.5c-4.1,4.1-10.7,4.1-14.8,0h-.1c-4.1-4.2-10.7-4.2-14.8-.1h0c-4.1,4.1-10.7,4.1-14.8,0l-.7-.7c-4.1-4.1-10.7-4.1-14.8,0l-.7.7c-4.1,4.1-10.7,4.1-14.8,0l-.6-.6c-4.1-4.1-10.7-4.1-14.8,0l-.5.5c-4.1,4.1-10.7,4.1-14.8,0h-.1c-4.1-4.2-10.7-4.2-14.8-.1" fill="none" stroke="#001c4c" stroke-miterlimit="10" stroke-width="4"/>
        <path d="M381.4,554.2c-4.1-4.1-10.7-4.1-14.8,0l-.7.7c-4.1,4.1-10.7,4.1-14.8,0l-.6-.6c-4.1-4.1-10.7-4.1-14.8,0l-.5.5c-4.1,4.1-10.7,4.1-14.8,0h-.1c-4.1-4.2-10.7-4.2-14.8-.1h0c-4.1,4.1-10.7,4.1-14.8,0l-.7-.7c-4.1-4.1-10.7-4.1-14.8,0l-.7.7c-4.1,4.1-10.7,4.1-14.8,0l-.6-.6c-4.1-4.1-10.7-4.1-14.8,0l-.5.5c-4.1,4.1-10.7,4.1-14.8,0h-.1c-4.1-4.2-10.7-4.2-14.8-.1" fill="none" stroke="#001c4c" stroke-miterlimit="10" stroke-width="4"/>
        <line x1="352.5" y1="463.6" x2="242.8" y2="463.6" fill="none" stroke="#001c4c" stroke-miterlimit="10" stroke-width="4"/>
        <path d="M338.8,552.7c.1-.5.2-.9.4-1.4,8.9-34.2,13.4-69.5,13.4-104.8v-1.6h21.4v107.5" fill="none" stroke="#001c4c" stroke-miterlimit="10" stroke-width="4"/>
        <path d="M221.4,552.4v-107.5h21.4c0,35.9,4.7,71.7,13.8,106.5" fill="none" stroke="#001c4c" stroke-miterlimit="10" stroke-width="4"/>
      </g>
    </g>
  </g>
</svg>